<svg width="300" height="200" xmlns="http://www.w3.org/2000/svg">
 <g stroke="null">
  <title>Layer 1</title>
  <text font-style="normal" font-weight="normal" xml:space="preserve" text-anchor="start" font-family="'Racing Sans One'" font-size="24" id="svg_1" y="23.34896" x="0" opacity="undefined" stroke-width="0" fill="#00bfbf" stroke="#000">WHATBLOG</text>
  <ellipse fill="none" stroke-width="null" stroke-dasharray="null" opacity="undefined" cx="11.20069" cy="41.49479" id="svg_4" rx="10" ry="10" transform="rotate(90 11.20069026947021,41.49478912353516) " stroke="#aeaeae"/>
  <path fill="none" stroke-width="null" stroke-dasharray="null" opacity="undefined" d="m8.25717,45.06853l4.36,-6.8125l4.36,6.8125l-8.72,0z" id="svg_6" transform="rotate(90 12.617169380187983,41.66228103637696) " stroke="#aeaeae"/>
  <ellipse fill="none" stroke-width="null" stroke-dasharray="null" opacity="undefined" cx="11.20069" cy="66.82592" id="svg_15" rx="10" ry="10" transform="rotate(90 11.200690269470202,66.82592010498048) " stroke="#00bfbf"/>
  <path fill="none" stroke-width="null" stroke-dasharray="null" opacity="undefined" d="m8.25717,70.39966l4.36,-6.8125l4.36,6.8125l-8.72,0z" id="svg_16" transform="rotate(90 12.617169380187976,66.99340820312501) " stroke="#00bfbf"/>
  <ellipse fill="none" stroke-width="null" stroke-dasharray="null" opacity="undefined" cx="37.77146" cy="41.49479" id="svg_24" rx="10" ry="10" transform="rotate(90 37.77145767211914,41.49478912353516) " stroke="#aeaeae"/>
  <path transform="rotate(44 63.372871398925774,41.03330993652344) " id="svg_45" d="m56.7747,47.63148l0,-13.19634l13.19634,13.19634l-13.19634,0z" opacity="undefined" stroke-dasharray="null" stroke-width="null" fill="none" stroke="#aeaeae"/>
  <path transform="rotate(-136 71.03958129882812,41.03330993652344) " id="svg_47" d="m64.44141,47.63148l0,-13.19634l13.19634,13.19634l-13.19634,0z" opacity="undefined" stroke-dasharray="null" stroke-width="null" fill="none" stroke="#aeaeae"/>
  <path transform="rotate(44 63.706527709960945,65.70011901855469) " id="svg_50" d="m57.10804,72.29829l0,-13.19634l13.19634,13.19634l-13.19634,0z" opacity="undefined" stroke-dasharray="null" stroke-width="null" fill="none" stroke="#00bfbf"/>
  <path transform="rotate(-136 71.37324523925781,65.36679077148438) " id="svg_51" d="m64.77475,71.96495l0,-13.19634l13.19634,13.19634l-13.19634,0z" opacity="undefined" stroke-dasharray="null" stroke-width="null" fill="none" stroke="#00bfbf"/>
  <text transform="matrix(0.763470254112863,0,0,0.763470254112863,5.791199112177234,35.18988041999858) " xml:space="preserve" text-anchor="start" font-family="'Racing Sans One'" font-size="24" id="svg_52" y="15.65006" x="103.18741" opacity="undefined" stroke-dasharray="null" stroke-width="null" fill="none" stroke="#aeaeae">词</text>
  <text fill-opacity="0" transform="matrix(0.763470254112863,0,0,0.763470254112863,5.791199112177234,35.18988041999858) " xml:space="preserve" text-anchor="start" font-family="'Racing Sans One'" font-size="24" id="svg_53" y="47.47283" x="103.18741" opacity="undefined" stroke-dasharray="null" stroke-width="null" fill="#00bfbf" stroke="#00bfbf">词</text>
  <path id="svg_55" d="m108.61662,34.95851l14.08449,0l0,2.11267l-14.08449,0l0,-2.11267z" opacity="undefined" fill-opacity="null" stroke-dasharray="null" stroke-width="null" fill="none" stroke="#aeaeae"/>
  <path id="svg_58" d="m108.61662,44.81765l14.08449,0l0,2.11267l-14.08449,0l0,-2.11267z" opacity="undefined" fill-opacity="null" stroke-dasharray="null" stroke-width="null" fill="none" stroke="#aeaeae"/>
  <path id="svg_59" d="m108.61661,39.88808l14.08449,0l0,2.11267l-14.08449,0l0,-2.11267z" opacity="undefined" fill-opacity="null" stroke-dasharray="null" stroke-width="null" fill="none" stroke="#aeaeae"/>
  <path id="svg_63" d="m108.61662,58.19791l14.08449,0l0,2.11267l-14.08449,0l0,-2.11267z" opacity="undefined" fill-opacity="null" stroke-dasharray="null" stroke-width="null" fill="none" stroke="#00bfbf"/>
  <path id="svg_64" d="m108.61662,68.05705l14.08449,0l0,2.11267l-14.08449,0l0,-2.11267z" opacity="undefined" fill-opacity="null" stroke-dasharray="null" stroke-width="null" fill="none" stroke="#00bfbf"/>
  <path id="svg_65" d="m108.61661,63.12748l14.08449,0l0,2.11267l-14.08449,0l0,-2.11267z" opacity="undefined" fill-opacity="null" stroke-dasharray="null" stroke-width="null" fill="none" stroke="#00bfbf"/>
  <path fill="#aeaeae" stroke-width="null" stroke-dasharray="null" opacity="undefined" d="m34.13829,37.77893l1.48148,0l0,8.14815l-1.48148,0l0,-8.14815z" id="svg_2" stroke="null"/>
  <path fill="#aeaeae" stroke-width="null" stroke-dasharray="null" opacity="undefined" d="m40.06422,37.77893l1.48148,0l0,8.14815l-1.48148,0l0,-8.14815z" id="svg_8" stroke="null"/>
  <ellipse fill="none" stroke-width="null" stroke-dasharray="null" opacity="undefined" cx="37.77146" cy="66.49472" id="svg_9" rx="10" ry="10" stroke="#00bfbf"/>
  <path fill="#00bfbf" stroke-width="null" stroke-dasharray="null" opacity="undefined" d="m34.13829,62.77886l1.48148,0l0,8.14815l-1.48148,0l0,-8.14815z" id="svg_10" stroke="null"/>
  <path fill="#00bfbf" stroke-width="null" stroke-dasharray="null" opacity="undefined" d="m40.06422,62.77886l1.48148,0l0,8.14815l-1.48148,0l0,-8.14815z" id="svg_11" stroke="null"/>
  <ellipse fill="none" stroke-width="null" stroke-dasharray="null" opacity="undefined" cx="11.40787" cy="91.04016" id="svg_3" rx="10" ry="10" transform="rotate(90 11.407868385314929,91.04016113281251) " stroke="#aeaeae"/>
  <path stroke="null" fill="#aeaeae" stroke-width="null" stroke-dasharray="null" opacity="undefined" d="m10.04742,85.05156l1.48148,0l0,8.37543l-1.48148,0l0,-8.37543z" id="svg_7"/>
  <path stroke="null" transform="rotate(90 14.424515724182116,92.87562561035158) " fill="#aeaeae" stroke-width="null" stroke-dasharray="null" opacity="undefined" d="m13.68378,88.68791l1.48148,0l0,8.37543l-1.48148,0l0,-8.37543z" id="svg_12"/>
  <path stroke="#aeaeae" id="svg_13" d="m130.29591,36.50269l0,7.56107l4.30433,0l6.44357,5.2916l0.00383,-18.14428l-6.44453,5.2916l-4.30721,0zm13.2223,-0.86949c-0.37633,-0.3725 -0.98056,-0.3725 -1.35498,0.00192c-0.37346,0.37441 -0.37346,0.98056 0.00192,1.35594l0,-0.00192c0.82639,0.82735 1.33583,1.96209 1.33583,3.22322c0,1.26018 -0.50848,2.39108 -1.33391,3.21844c-0.37729,0.3725 -0.37729,0.97865 -0.00192,1.35498c0.18673,0.18673 0.43187,0.28057 0.67701,0.28057c0.2461,0 0.49124,-0.09384 0.67797,-0.28057c1.17017,-1.16825 1.89601,-2.79135 1.89506,-4.57342c0.00096,-1.78589 -0.72776,-3.41091 -1.89697,-4.57916zm2.19765,-2.1967c-0.37633,-0.37441 -0.98056,-0.37441 -1.35306,0c-0.37537,0.37441 -0.37537,0.98152 0,1.35402c1.38849,1.38945 2.24457,3.30079 2.24457,5.42088c0,2.11817 -0.85608,4.02855 -2.24266,5.41896c-0.37537,0.37346 -0.37537,0.97961 0,1.35402c0.18673,0.18673 0.43187,0.28057 0.67797,0.28057c0.24514,0 0.49028,-0.09384 0.67701,-0.28057c1.73131,-1.73227 2.80476,-4.13197 2.80284,-6.77298c0.00096,-2.64293 -1.07249,-5.04455 -2.80667,-6.7749z" opacity="undefined" stroke-dasharray="null" stroke-width="null" fill="none"/>
  <path stroke="#00bfbf" id="svg_14" d="m130.29591,60.14804l0,7.56108l4.30433,0l6.44358,5.2916l0.00383,-18.14428l-6.44453,5.2916l-4.30721,0zm13.2223,-0.86948c-0.37633,-0.3725 -0.98057,-0.3725 -1.35498,0.00191c-0.37346,0.37442 -0.37346,0.98057 0.00192,1.35594l0,-0.00191c0.82639,0.82735 1.33582,1.96208 1.33582,3.22322c0,1.26018 -0.50847,2.39109 -1.33391,3.21844c-0.37729,0.3725 -0.37729,0.97865 -0.00191,1.35498c0.18672,0.18673 0.43186,0.28057 0.67701,0.28057c0.24609,0 0.49124,-0.09384 0.67796,-0.28057c1.17017,-1.16825 1.89602,-2.79136 1.89506,-4.57342c0.00096,-1.78589 -0.72776,-3.41091 -1.89697,-4.57916zm2.19765,-2.1967c-0.37633,-0.37441 -0.98056,-0.37441 -1.35306,0c-0.37538,0.37442 -0.37538,0.98153 0,1.35403c1.38849,1.38945 2.24457,3.30078 2.24457,5.42087c0,2.11818 -0.85608,4.02855 -2.24266,5.41896c-0.37537,0.37346 -0.37537,0.97961 0,1.35403c0.18673,0.18673 0.43187,0.28057 0.67797,0.28057c0.24514,0 0.49028,-0.09384 0.67701,-0.28057c1.73131,-1.73227 2.80476,-4.13197 2.80285,-6.77299c0.00095,-2.64293 -1.0725,-5.04454 -2.80668,-6.7749z" opacity="undefined" stroke-dasharray="null" stroke-width="null" fill="none"/>
  <path stroke="#aeaeae" id="svg_17" d="m67.18234,82.87962c-6.88379,0 -12.31529,7.03705 -12.31529,7.03705s5.4315,7.03796 12.31529,7.03796c5.26456,0 12.31529,-7.03796 12.31529,-7.03796s-7.05073,-7.03705 -12.31529,-7.03705zm0,11.4222c-2.41653,0 -4.38515,-1.96771 -4.38515,-4.38516s1.96862,-4.38516 4.38515,-4.38516s4.38515,1.96862 4.38515,4.38516s-1.96862,4.38516 -4.38515,4.38516zm0,-6.94491c-1.41306,0 -2.55975,1.14578 -2.55975,2.55976c0,1.41398 1.14578,2.55976 2.55975,2.55976c1.41398,0 2.55975,-1.14578 2.55975,-2.55976c0,-1.41307 -1.14578,-2.55976 -2.55975,-2.55976z" opacity="undefined" stroke-dasharray="null" stroke-width="null" fill="none"/>
  <path stroke="#aeaeae" id="svg_19" d="m37.51008,82.39671l-3.79156,0l-3.1017,3.1017l0,3.79156l9.36292,9.36292l6.89325,-6.89385l-9.36292,-9.36233zm-4.63168,3.59718c-0.36908,-0.36908 -0.36908,-0.96712 0,-1.3356c0.36908,-0.36908 0.96712,-0.36908 1.3362,0c0.36968,0.36968 0.36908,0.96652 0,1.3362c-0.36908,0.36908 -0.96712,0.36908 -1.3362,-0.0006z" opacity="undefined" stroke-dasharray="null" stroke-width="null" fill="none"/>
  <path stroke="#aeaeae" id="svg_20" d="m87.74631,81.49349l2.72892,0l0,0l4.09337,0l9.5512,0l0,6.36747l0,0l0,2.72892l0,1.81928l-9.5512,0l-6.79579,5.35023l2.70241,-5.35023l-2.72892,0l0,-1.81928l0,-2.72892l0,0l0,-6.36747z" opacity="undefined" fill-opacity="null" stroke-dasharray="null" stroke-width="null" fill="none"/>
  <path stroke="#aeaeae" id="svg_23" d="m121.93401,82.26494l-1.84916,-1.16225c-0.46655,-0.29295 -1.08131,-0.15195 -1.37528,0.31469l-0.72886,1.16008l3.53752,2.22183l0.72943,-1.15954c0.29286,-0.4672 0.15309,-1.08252 -0.31365,-1.37482l0,0zm-10.24832,10.33508l3.53771,2.22181l5.76588,-9.17881l-3.53939,-2.22239l-5.76419,9.17939l0,0zm-0.54038,2.82289l-0.07814,2.08691l1.84632,-0.97658l1.71576,-0.90591l-3.41294,-2.14481l-0.071,1.94039l0,0l0,0z" opacity="undefined" fill-opacity="null" stroke-opacity="null" stroke-dasharray="null" stroke-width="null" fill="none"/>
 </g>

</svg>